PathFileType	4	(X/Y/Z)	/Users/niels/Desktop/University/Third Semester/Perception and Action/Exam/Gymnastics Motion Tracking/Code for Gym Tracking/Analyzed Data/Webcam_Backflip/id6_5_pure_Sports2D/id6_5_pure_Sports2D_px_person00.trc
DataRate	CameraRate	NumFrames	NumMarkers	Units	OrigDataRate	OrigDataStartFrame	OrigNumFrames
29.81132075471698	29.81132075471698	9	22	m	29.81132075471698	39	159
Frame#	Time	Hip			RHip			RKnee			RAnkle			RBigToe			RSmallToe			RHeel			LHip			LKnee			LAnkle			LBigToe			LSmallToe			LHeel			Neck			Head			Nose			RShoulder			RElbow			RWrist			LShoulder			LElbow			LWrist		
		X1	Y1	Z1	X2	Y2	Z2	X3	Y3	Z3	X4	Y4	Z4	X5	Y5	Z5	X6	Y6	Z6	X7	Y7	Z7	X8	Y8	Z8	X9	Y9	Z9	X10	Y10	Z10	X11	Y11	Z11	X12	Y12	Z12	X13	Y13	Z13	X14	Y14	Z14	X15	Y15	Z15	X16	Y16	Z16	X17	Y17	Z17	X18	Y18	Z18	X19	Y19	Z19	X20	Y20	Z20	X21	Y21	Z21	X22	Y22	Z22
39	1.3082278481012657	0.9906551596456926	-0.39199742756847394	0.0	0.9907160794505435	-0.3909752627075899	0.0	0.9299066069369499	-0.3489776954213904	0.0	0.9742716929218808	-0.30728328065047167	0.0	0.9689405335986886	-0.2972858881733918	0.0	0.9734133501094425	-0.3003753201301642	0.0	0.9813369816707037	-0.302879878521601	0.0	0.9888398003277754	-0.3909243850769623	0.0	0.9327837674657239	-0.35461337919636443	0.0	0.9749446235859067	-0.30624222627972914	0.0	0.9671518489439692	-0.3017799460812131	0.0	0.9576954683349187	-0.3293457070278117	0.0	0.9856136335495725	-0.2970838333890449	0.0	0.9063213321215757	-0.46455529340218	0.0	0.8706032176454751	-0.5032728427156277	0.0	0.8824123310711114	-0.4836023872478789	0.0	0.9153390343342296	-0.4512900969849936	0.0	0.9276947384956286	-0.39136488431426414	0.0	0.9156405669255899	-0.35017568234938784	0.0	0.9144288635984926	-0.45866537361594173	0.0	0.9283745315211374	-0.3953740615315108	0.0	0.9179360243422411	-0.35711893273334255	0.0
40	1.3417721518987342	0.986137415566066	-0.37244513940959956	0.0	0.9841304857872193	-0.37076003488550174	0.0	0.9086102355360827	-0.3625032008402014	0.0	0.9287773614526834	-0.30463216954002553	0.0	0.9131145732782624	-0.29884143717524453	0.0	0.9171618249163719	-0.29936815435805547	0.0	0.9326997369194722	-0.29478009981854836	0.0	0.9847775569772879	-0.3721285970759165	0.0	0.9142271665357954	-0.3667131154296454	0.0	0.9344941546564839	-0.3049355940598071	0.0	0.9163485526970329	-0.30279585202595344	0.0	0.9073031333887617	-0.3307034469983935	0.0	0.9390713806594476	-0.2886019156656662	0.0	0.9336084163266073	-0.47323628346839003	0.0	0.9148341010540609	-0.5232982363416753	0.0	0.9146582213550363	-0.5041138507320042	0.0	0.9396709872805951	-0.4569520216905283	0.0	0.9293534963479628	-0.401303452008832	0.0	0.9040049920898022	-0.37356029868988483	0.0	0.9395418821596402	-0.46505934922444186	0.0	0.9345363484244846	-0.4059599000417781	0.0	0.9098003875883548	-0.3812045690424764	0.0
41	1.3753164556962025	0.9769556452286131	-0.3581645527418072	0.0	0.972972738874426	-0.3565819735751203	0.0	0.8928429795976119	-0.3830136711581865	0.0	0.883634327616104	-0.32194052814112095	0.0	0.8603121336454815	-0.32414902929383516	0.0	0.8629879461843933	-0.3215952674421746	0.0	0.8835230228893131	-0.3086453705887575	0.0	0.9762518258960613	-0.35901475209866585	0.0	0.8999255884442274	-0.38536185379505317	0.0	0.8965525752398956	-0.3232646249136528	0.0	0.8706262040296362	-0.32597178518894815	0.0	0.8644545010463701	-0.3496656325172876	0.0	0.8919795695708674	-0.30246461997528024	0.0	0.9631609590224757	-0.4758673962177627	0.0	0.9624347819820083	-0.5320480968366028	0.0	0.9510932705817862	-0.5146185371899079	0.0	0.9653405425670553	-0.45849518491324404	0.0	0.9333941389990312	-0.4149626549519232	0.0	0.8993999042688686	-0.4042956211532701	0.0	0.9663061998760679	-0.4660200950930926	0.0	0.9422046981346589	-0.41966513477442746	0.0	0.9082037476651864	-0.4111474948058561	0.0
42	1.4088607594936708	0.9645549423136481	-0.35144849118386773	0.0	0.9586977874616834	-0.3505603343730872	0.0	0.8827406428819303	-0.40731321407834586	0.0	0.8444874143750684	-0.35722282854324927	0.0	0.81855420006517	-0.37103126818426196	0.0	0.8188870540065344	-0.36555380416424005	0.0	0.83994258589556	-0.3430580955226561	0.0	0.9647387465822137	-0.3536434975380779	0.0	0.8896479206508066	-0.4077743208405744	0.0	0.8670519751298083	-0.3591505808570923	0.0	0.8379241343578707	-0.3697780825009234	0.0	0.8361397091751332	-0.3857194134049433	0.0	0.8501913713845215	-0.33757374949436464	0.0	0.9913119537096089	-0.47248399224291676	0.0	1.0079538570146789	-0.5294516330381183	0.0	0.9874060902549381	-0.5149159033145783	0.0	0.989424913941144	-0.4560212083676177	0.0	0.9418663334490482	-0.43242836543286806	0.0	0.9063461474747834	-0.44042603895735916	0.0	0.9918450316168629	-0.4614680291165719	0.0	0.9526106592922887	-0.43629826683586626	0.0	0.9167753881649451	-0.4449071761490567	0.0
43	1.4424050632911392	0.9507017326427221	-0.3538167560374711	0.0	0.9432386163081037	-0.3537740852411473	0.0	0.8770394314162187	-0.43340141648957187	0.0	0.8161151778052242	-0.40637841820937165	0.0	0.794019572859676	-0.4331256135963356	0.0	0.7913581470144686	-0.4257211559773724	0.0	0.8074240439078944	-0.39401996700756475	0.0	0.9519097378722542	-0.35699007911536507	0.0	0.8825305163943851	-0.4324484522201818	0.0	0.8500994622204453	-0.40852518314521025	0.0	0.8233969778098003	-0.428623347315926	0.0	0.8257790909455145	-0.43596930131022027	0.0	0.8187666147020587	-0.3897242513785247	0.0	1.014489448569586	-0.4647534751228393	0.0	1.0469202830629858	-0.5175295201147502	0.0	1.0194000651470616	-0.5069509182178024	0.0	1.0091685686409677	-0.45075834773294526	0.0	0.9560562565531775	-0.45222812831729425	0.0	0.9271467631882447	-0.4776770940969339	0.0	1.0130573051631664	-0.4530566371963841	0.0	0.9669775651397217	-0.4544822512910125	0.0	0.9375440517196397	-0.4790385807419881	0.0
44	1.4759493670886075	0.9368321173602173	-0.3657615800257629	0.0	0.9283924216022049	-0.36629987552858706	0.0	0.8740329548340735	-0.46092050826380415	0.0	0.8010945551728353	-0.4638961054453288	0.0	0.7884115032772903	-0.5013871585850758	0.0	0.7827946855591461	-0.4935851770206689	0.0	0.7892633458740983	-0.45555680864917086	0.0	0.9390410444357326	-0.3690797249453513	0.0	0.8777160933256876	-0.459225457846467	0.0	0.8451582738034674	-0.465803597636622	0.0	0.8257787996754258	-0.4941156659131665	0.0	0.8307520386573158	-0.49444107789363945	0.0	0.8006887588922423	-0.45232462485784836	0.0	1.0301811752737662	-0.45534391979755123	0.0	1.0762274493252262	-0.4997235889021378	0.0	1.0439329001319908	-0.49399745108769894	0.0	1.0225672693076957	-0.44480050882297545	0.0	0.9756274321328783	-0.47141462223133	0.0	0.9608107539171076	-0.5101310287178806	0.0	1.0275151839463337	-0.4435524762059754	0.0	0.985489884426091	-0.47157677959837113	0.0	0.9698706521538617	-0.5086035297150661	0.0
45	1.5094936708860758	0.9239090919614545	-0.3868431693281479	0.0	0.9154239411131219	-0.38751999930757897	0.0	0.8728101812847433	-0.490737113485568	0.0	0.799117724796594	-0.5242697498160866	0.0	0.7984078423148244	-0.5678172796385751	0.0	0.7905904178091285	-0.5609980494730069	0.0	0.7855906783994124	-0.5211853805206456	0.0	0.9269047885804853	-0.38947066123296703	0.0	0.8750415306317861	-0.4888050680486743	0.0	0.8466555880747821	-0.5253714485382041	0.0	0.8374512800006144	-0.558816058070959	0.0	0.842996042305554	-0.5546407537190494	0.0	0.7959855449907727	-0.5184843005558267	0.0	1.0375505306560628	-0.44712415011582535	0.0	1.0942719138980013	-0.4800944286155294	0.0	1.05951355407516	-0.4797905172432367	0.0	1.0288123662154534	-0.44047852890869255	0.0	0.9983812594782336	-0.48674816486840106	0.0	1.0028110861070672	-0.532200926297113	0.0	1.0341926146369367	-0.4358949938957112	0.0	1.0065834660028457	-0.4846226782672028	0.0	1.0097077278831232	-0.5285180662546176	0.0
46	1.5430379746835443	0.9126962397787726	-0.4159791686406975	0.0	0.9050903496999	-0.41640784393793806	0.0	0.8734987371726516	-0.5238905865063263	0.0	0.8074280147287942	-0.583312088268401	0.0	0.817752156455489	-0.627942458189246	0.0	0.8088634838333489	-0.6228503253018657	0.0	0.7935851648638395	-0.5855845507265929	0.0	0.9160774832447575	-0.4174907057776035	0.0	0.8749351345833994	-0.5219814349787908	0.0	0.8490895005838711	-0.5831946226139372	0.0	0.8506255670290955	-0.6185547710382191	0.0	0.8549718055896732	-0.6122631938778207	0.0	0.8020308581017165	-0.5829309727269294	0.0	1.0373103173363603	-0.4425212747221958	0.0	1.1011548235311293	-0.46260066374047093	0.0	1.0662761719484346	-0.46777007569467877	0.0	1.0282682288979526	-0.4397479627879252	0.0	1.0206932926199477	-0.4962637875797815	0.0	1.0459360355018235	-0.5408564435257864	0.0	1.033464712016395	-0.43255534540330753	0.0	1.0268585946264928	-0.4918567453363158	0.0	1.0499700873760383	-0.5358116001129102	0.0
47	1.5765822784810126	0.9039316265388542	-0.4516332876129811	0.0	0.8977934472551572	-0.45161362060090204	0.0	0.8765209369579142	-0.560685397779253	0.0	0.8219822853055537	-0.638621130597462	0.0	0.8399911234638311	-0.6805694112448486	0.0	0.8311432722968685	-0.6773377502710524	0.0	0.8087264640989477	-0.6454394752939484	0.0	0.9072528634000693	-0.45201078375051423	0.0	0.8776605631449529	-0.5588872199990752	0.0	0.8516976712021864	-0.6372609335865115	0.0	0.8625810453626849	-0.6719165347113718	0.0	0.8646403908896275	-0.6653274232214517	0.0	0.8148994221077429	-0.6425689856233295	0.0	1.0310639501531784	-0.44311053138242773	0.0	1.0984827035496032	-0.4504959837390891	0.0	1.0653896743481557	-0.46056339268036595	0.0	1.0220502478353053	-0.4439030713132236	0.0	1.0386514482463562	-0.5001151065383641	0.0	1.0824058239893861	-0.5366613237439574	0.0	1.0266341304127333	-0.4351135937477089	0.0	1.0420507769193181	-0.49353327607390324	0.0	1.0824150996491098	-0.5308583843985281	0.0
